M48
; DRILL file {KiCad (6.0.7)} date Wed Dec  7 22:38:16 2022
; FORMAT={-:-/ absolute / inch / decimal}
; #@! TF.CreationDate,2022-12-07T22:38:16+09:00
; #@! TF.GenerationSoftware,Kicad,Pcbnew,(6.0.7)
; #@! TF.FileFunction,Plated,1,2,PTH
FMAT,2
INCH
; #@! TA.AperFunction,Plated,PTH,ViaDrill
T1C0.0157
; #@! TA.AperFunction,Plated,PTH,ViaDrill
T2C0.0236
; #@! TA.AperFunction,Plated,PTH,ComponentDrill
T3C0.0315
; #@! TA.AperFunction,Plated,PTH,ComponentDrill
T4C0.0394
; #@! TA.AperFunction,Plated,PTH,ComponentDrill
T5C0.0598
; #@! TA.AperFunction,Plated,PTH,ViaDrill
T6C0.1339
%
G90
G05
T1
X-1.22Y0.82
X-1.0787Y0.7838
X-1.075Y-0.11
X-1.025Y-0.11
T2
X-2.25Y1.825
X-2.25Y1.725
X-2.225Y1.2
X-2.225Y0.575
X-2.225Y0.475
X-2.225Y0.2
X-2.225Y0.025
X-2.225Y-0.05
X-2.225Y-0.15
X-2.225Y-0.225
X-2.2214Y1.2835
X-2.15Y1.025
X-2.075Y1.65
X-2.075Y0.325
X-2.0Y1.575
X-2.0Y-0.3
X-1.9Y1.7
X-1.9Y1.42
X-1.9Y1.075
X-1.9Y0.45
X-1.9Y-0.175
X-1.8Y1.575
X-1.8Y0.925
X-1.8Y0.325
X-1.8Y0.2
X-1.75Y1.65
X-1.75Y1.375
X-1.75Y1.025
X-1.75Y0.4
X-1.75Y-0.225
X-1.75Y-0.3
X-1.7Y1.75
X-1.7Y0.925
X-1.7Y0.775
X-1.7Y0.5
X-1.7Y0.2
X-1.7Y-0.125
X-1.675Y1.525
X-1.675Y1.125
X-1.575Y1.6
X-1.575Y1.525
X-1.575Y0.925
X-1.575Y0.775
X-1.575Y0.325
X-1.575Y0.2
X-1.575Y0.1
X-1.56Y-0.32
X-1.525Y1.85
X-1.525Y1.225
X-1.525Y0.6
X-1.525Y-0.025
X-1.475Y1.42
X-1.475Y1.375
X-1.475Y0.775
X-1.475Y0.325
X-1.475Y0.1
X-1.44Y0.82
X-1.4Y0.775
X-1.4Y0.675
X-1.4Y0.16
X-1.375Y1.375
X-1.34Y1.56
X-1.3Y0.425
X-1.3Y0.325
X-1.3Y0.2
X-1.3Y0.1
X-1.3Y-0.1
X-1.28Y1.16
X-1.28Y1.12
X-1.275Y1.525
X-1.275Y1.4
X-1.275Y0.675
X-1.22Y0.64
X-1.2Y1.4
X-1.2Y-0.125
X-1.2Y-0.2
X-1.2Y-0.275
X-1.1944Y1.5254
X-1.175Y0.675
X-1.175Y0.3
X-1.175Y0.225
X-1.125Y1.525
X-1.075Y1.3
X-1.075Y1.0
X-1.075Y0.55
X-1.075Y0.4
X-1.05Y1.45
X-1.025Y0.225
X-1.0Y1.625
X-0.95Y1.0
X-0.95Y0.55
X-0.95Y0.4
X-0.925Y0.25
X-0.9Y0.725
X-0.85Y0.775
X-0.85Y0.225
X-0.825Y0.65
X-0.8Y1.0266
X-0.8Y0.975
X-0.8Y0.875
X-0.8Y0.825
X-0.8Y0.175
X-0.7775Y0.775
X-0.7757Y1.3998
X-0.775Y1.55
X-0.775Y1.475
X-0.75Y0.4
X-0.725Y0.325
X-0.65Y0.525
X-0.625Y0.075
X-0.55Y0.7
X-0.532Y0.526
X-0.45Y1.4
X-0.45Y1.2
X-0.45Y1.075
X-0.45Y0.825
X-0.45Y0.625
X-0.45Y0.45
X-0.45Y0.275
X-0.45Y0.075
X-0.45Y-0.225
X-0.45Y-0.3
T3
X-2.275Y1.025
X-2.275Y0.625
T4
X-0.625Y1.4504
X-0.625Y1.3504
X-0.625Y1.2504
X-0.625Y1.1504
T5
X-2.55Y1.95
X-2.55Y1.75
X-2.55Y1.55
X-2.55Y1.325
X-2.55Y1.125
X-2.55Y0.925
X-2.55Y0.7
X-2.55Y0.5
X-2.55Y0.3
X-2.55Y0.075
X-2.55Y-0.125
X-2.55Y-0.325
X-1.375Y-0.625
X-1.175Y-0.625
X-0.975Y-0.625
X-0.775Y-0.625
X-0.575Y-0.625
T6
X-2.5591Y-0.6299
X-1.7717Y-0.6299
X-0.5906Y1.9291
T0
M30
