%TF.GenerationSoftware,KiCad,Pcbnew,(6.0.7)*%
%TF.CreationDate,2022-12-07T22:38:20+09:00*%
%TF.ProjectId,multi_channel_temperature,6d756c74-695f-4636-9861-6e6e656c5f74,rev?*%
%TF.SameCoordinates,Original*%
%TF.FileFunction,Legend,Bot*%
%TF.FilePolarity,Positive*%
%FSLAX46Y46*%
G04 Gerber Fmt 4.6, Leading zero omitted, Abs format (unit mm)*
G04 Created by KiCad (PCBNEW (6.0.7)) date 2022-12-07 22:38:20*
%MOMM*%
%LPD*%
G01*
G04 APERTURE LIST*
%ADD10C,0.150000*%
%ADD11C,0.120000*%
G04 APERTURE END LIST*
D10*
%TO.C,R46*%
X-26468095Y-4885285D02*
X-26849047Y-4685285D01*
X-26468095Y-4542428D02*
X-27268095Y-4542428D01*
X-27268095Y-4771000D01*
X-27230000Y-4828142D01*
X-27191904Y-4856714D01*
X-27115714Y-4885285D01*
X-27001428Y-4885285D01*
X-26925238Y-4856714D01*
X-26887142Y-4828142D01*
X-26849047Y-4771000D01*
X-26849047Y-4542428D01*
X-27001428Y-5399571D02*
X-26468095Y-5399571D01*
X-27306190Y-5256714D02*
X-26734761Y-5113857D01*
X-26734761Y-5485285D01*
X-27268095Y-5971000D02*
X-27268095Y-5856714D01*
X-27230000Y-5799571D01*
X-27191904Y-5771000D01*
X-27077619Y-5713857D01*
X-26925238Y-5685285D01*
X-26620476Y-5685285D01*
X-26544285Y-5713857D01*
X-26506190Y-5742428D01*
X-26468095Y-5799571D01*
X-26468095Y-5913857D01*
X-26506190Y-5971000D01*
X-26544285Y-5999571D01*
X-26620476Y-6028142D01*
X-26810952Y-6028142D01*
X-26887142Y-5999571D01*
X-26925238Y-5971000D01*
X-26963333Y-5913857D01*
X-26963333Y-5799571D01*
X-26925238Y-5742428D01*
X-26887142Y-5713857D01*
X-26810952Y-5685285D01*
%TO.C,C36*%
X-40114285Y-1395714D02*
X-40085714Y-1433809D01*
X-40000000Y-1471904D01*
X-39942857Y-1471904D01*
X-39857142Y-1433809D01*
X-39800000Y-1357619D01*
X-39771428Y-1281428D01*
X-39742857Y-1129047D01*
X-39742857Y-1014761D01*
X-39771428Y-862380D01*
X-39800000Y-786190D01*
X-39857142Y-710000D01*
X-39942857Y-671904D01*
X-40000000Y-671904D01*
X-40085714Y-710000D01*
X-40114285Y-748095D01*
X-40314285Y-671904D02*
X-40685714Y-671904D01*
X-40485714Y-976666D01*
X-40571428Y-976666D01*
X-40628571Y-1014761D01*
X-40657142Y-1052857D01*
X-40685714Y-1129047D01*
X-40685714Y-1319523D01*
X-40657142Y-1395714D01*
X-40628571Y-1433809D01*
X-40571428Y-1471904D01*
X-40400000Y-1471904D01*
X-40342857Y-1433809D01*
X-40314285Y-1395714D01*
X-41200000Y-671904D02*
X-41085714Y-671904D01*
X-41028571Y-710000D01*
X-41000000Y-748095D01*
X-40942857Y-862380D01*
X-40914285Y-1014761D01*
X-40914285Y-1319523D01*
X-40942857Y-1395714D01*
X-40971428Y-1433809D01*
X-41028571Y-1471904D01*
X-41142857Y-1471904D01*
X-41200000Y-1433809D01*
X-41228571Y-1395714D01*
X-41257142Y-1319523D01*
X-41257142Y-1129047D01*
X-41228571Y-1052857D01*
X-41200000Y-1014761D01*
X-41142857Y-976666D01*
X-41028571Y-976666D01*
X-40971428Y-1014761D01*
X-40942857Y-1052857D01*
X-40914285Y-1129047D01*
%TO.C,C35*%
X-40394285Y46229285D02*
X-40365714Y46191190D01*
X-40280000Y46153095D01*
X-40222857Y46153095D01*
X-40137142Y46191190D01*
X-40080000Y46267380D01*
X-40051428Y46343571D01*
X-40022857Y46495952D01*
X-40022857Y46610238D01*
X-40051428Y46762619D01*
X-40080000Y46838809D01*
X-40137142Y46915000D01*
X-40222857Y46953095D01*
X-40280000Y46953095D01*
X-40365714Y46915000D01*
X-40394285Y46876904D01*
X-40594285Y46953095D02*
X-40965714Y46953095D01*
X-40765714Y46648333D01*
X-40851428Y46648333D01*
X-40908571Y46610238D01*
X-40937142Y46572142D01*
X-40965714Y46495952D01*
X-40965714Y46305476D01*
X-40937142Y46229285D01*
X-40908571Y46191190D01*
X-40851428Y46153095D01*
X-40680000Y46153095D01*
X-40622857Y46191190D01*
X-40594285Y46229285D01*
X-41508571Y46953095D02*
X-41222857Y46953095D01*
X-41194285Y46572142D01*
X-41222857Y46610238D01*
X-41280000Y46648333D01*
X-41422857Y46648333D01*
X-41480000Y46610238D01*
X-41508571Y46572142D01*
X-41537142Y46495952D01*
X-41537142Y46305476D01*
X-41508571Y46229285D01*
X-41480000Y46191190D01*
X-41422857Y46153095D01*
X-41280000Y46153095D01*
X-41222857Y46191190D01*
X-41194285Y46229285D01*
%TO.C,C39*%
X-25014285Y30354285D02*
X-24985714Y30316190D01*
X-24900000Y30278095D01*
X-24842857Y30278095D01*
X-24757142Y30316190D01*
X-24700000Y30392380D01*
X-24671428Y30468571D01*
X-24642857Y30620952D01*
X-24642857Y30735238D01*
X-24671428Y30887619D01*
X-24700000Y30963809D01*
X-24757142Y31040000D01*
X-24842857Y31078095D01*
X-24900000Y31078095D01*
X-24985714Y31040000D01*
X-25014285Y31001904D01*
X-25214285Y31078095D02*
X-25585714Y31078095D01*
X-25385714Y30773333D01*
X-25471428Y30773333D01*
X-25528571Y30735238D01*
X-25557142Y30697142D01*
X-25585714Y30620952D01*
X-25585714Y30430476D01*
X-25557142Y30354285D01*
X-25528571Y30316190D01*
X-25471428Y30278095D01*
X-25300000Y30278095D01*
X-25242857Y30316190D01*
X-25214285Y30354285D01*
X-25871428Y30278095D02*
X-25985714Y30278095D01*
X-26042857Y30316190D01*
X-26071428Y30354285D01*
X-26128571Y30468571D01*
X-26157142Y30620952D01*
X-26157142Y30925714D01*
X-26128571Y31001904D01*
X-26100000Y31040000D01*
X-26042857Y31078095D01*
X-25928571Y31078095D01*
X-25871428Y31040000D01*
X-25842857Y31001904D01*
X-25814285Y30925714D01*
X-25814285Y30735238D01*
X-25842857Y30659047D01*
X-25871428Y30620952D01*
X-25928571Y30582857D01*
X-26042857Y30582857D01*
X-26100000Y30620952D01*
X-26128571Y30659047D01*
X-26157142Y30735238D01*
%TO.C,C38*%
X-40114285Y30354285D02*
X-40085714Y30316190D01*
X-40000000Y30278095D01*
X-39942857Y30278095D01*
X-39857142Y30316190D01*
X-39800000Y30392380D01*
X-39771428Y30468571D01*
X-39742857Y30620952D01*
X-39742857Y30735238D01*
X-39771428Y30887619D01*
X-39800000Y30963809D01*
X-39857142Y31040000D01*
X-39942857Y31078095D01*
X-40000000Y31078095D01*
X-40085714Y31040000D01*
X-40114285Y31001904D01*
X-40314285Y31078095D02*
X-40685714Y31078095D01*
X-40485714Y30773333D01*
X-40571428Y30773333D01*
X-40628571Y30735238D01*
X-40657142Y30697142D01*
X-40685714Y30620952D01*
X-40685714Y30430476D01*
X-40657142Y30354285D01*
X-40628571Y30316190D01*
X-40571428Y30278095D01*
X-40400000Y30278095D01*
X-40342857Y30316190D01*
X-40314285Y30354285D01*
X-41028571Y30735238D02*
X-40971428Y30773333D01*
X-40942857Y30811428D01*
X-40914285Y30887619D01*
X-40914285Y30925714D01*
X-40942857Y31001904D01*
X-40971428Y31040000D01*
X-41028571Y31078095D01*
X-41142857Y31078095D01*
X-41200000Y31040000D01*
X-41228571Y31001904D01*
X-41257142Y30925714D01*
X-41257142Y30887619D01*
X-41228571Y30811428D01*
X-41200000Y30773333D01*
X-41142857Y30735238D01*
X-41028571Y30735238D01*
X-40971428Y30697142D01*
X-40942857Y30659047D01*
X-40914285Y30582857D01*
X-40914285Y30430476D01*
X-40942857Y30354285D01*
X-40971428Y30316190D01*
X-41028571Y30278095D01*
X-41142857Y30278095D01*
X-41200000Y30316190D01*
X-41228571Y30354285D01*
X-41257142Y30430476D01*
X-41257142Y30582857D01*
X-41228571Y30659047D01*
X-41200000Y30697142D01*
X-41142857Y30735238D01*
%TO.C,C34*%
X-40254285Y14479285D02*
X-40225714Y14441190D01*
X-40140000Y14403095D01*
X-40082857Y14403095D01*
X-39997142Y14441190D01*
X-39940000Y14517380D01*
X-39911428Y14593571D01*
X-39882857Y14745952D01*
X-39882857Y14860238D01*
X-39911428Y15012619D01*
X-39940000Y15088809D01*
X-39997142Y15165000D01*
X-40082857Y15203095D01*
X-40140000Y15203095D01*
X-40225714Y15165000D01*
X-40254285Y15126904D01*
X-40454285Y15203095D02*
X-40825714Y15203095D01*
X-40625714Y14898333D01*
X-40711428Y14898333D01*
X-40768571Y14860238D01*
X-40797142Y14822142D01*
X-40825714Y14745952D01*
X-40825714Y14555476D01*
X-40797142Y14479285D01*
X-40768571Y14441190D01*
X-40711428Y14403095D01*
X-40540000Y14403095D01*
X-40482857Y14441190D01*
X-40454285Y14479285D01*
X-41340000Y14936428D02*
X-41340000Y14403095D01*
X-41197142Y15241190D02*
X-41054285Y14669761D01*
X-41425714Y14669761D01*
%TO.C,R49*%
X-26308095Y-4885285D02*
X-26689047Y-4685285D01*
X-26308095Y-4542428D02*
X-27108095Y-4542428D01*
X-27108095Y-4771000D01*
X-27070000Y-4828142D01*
X-27031904Y-4856714D01*
X-26955714Y-4885285D01*
X-26841428Y-4885285D01*
X-26765238Y-4856714D01*
X-26727142Y-4828142D01*
X-26689047Y-4771000D01*
X-26689047Y-4542428D01*
X-26841428Y-5399571D02*
X-26308095Y-5399571D01*
X-27146190Y-5256714D02*
X-26574761Y-5113857D01*
X-26574761Y-5485285D01*
X-26308095Y-5742428D02*
X-26308095Y-5856714D01*
X-26346190Y-5913857D01*
X-26384285Y-5942428D01*
X-26498571Y-5999571D01*
X-26650952Y-6028142D01*
X-26955714Y-6028142D01*
X-27031904Y-5999571D01*
X-27070000Y-5971000D01*
X-27108095Y-5913857D01*
X-27108095Y-5799571D01*
X-27070000Y-5742428D01*
X-27031904Y-5713857D01*
X-26955714Y-5685285D01*
X-26765238Y-5685285D01*
X-26689047Y-5713857D01*
X-26650952Y-5742428D01*
X-26612857Y-5799571D01*
X-26612857Y-5913857D01*
X-26650952Y-5971000D01*
X-26689047Y-5999571D01*
X-26765238Y-6028142D01*
D11*
%TO.C,R46*%
X-25922500Y-5033742D02*
X-25922500Y-5508258D01*
X-24877500Y-5033742D02*
X-24877500Y-5508258D01*
%TO.C,C36*%
X-40359420Y-3050000D02*
X-40640580Y-3050000D01*
X-40359420Y-2030000D02*
X-40640580Y-2030000D01*
%TO.C,C35*%
X-40639420Y44575000D02*
X-40920580Y44575000D01*
X-40639420Y45595000D02*
X-40920580Y45595000D01*
%TO.C,C39*%
X-25259420Y29720000D02*
X-25540580Y29720000D01*
X-25259420Y28700000D02*
X-25540580Y28700000D01*
%TO.C,C38*%
X-40359420Y28700000D02*
X-40640580Y28700000D01*
X-40359420Y29720000D02*
X-40640580Y29720000D01*
%TO.C,C34*%
X-40499420Y12825000D02*
X-40780580Y12825000D01*
X-40499420Y13845000D02*
X-40780580Y13845000D01*
%TO.C,R49*%
X-27417500Y-5033742D02*
X-27417500Y-5508258D01*
X-28462500Y-5033742D02*
X-28462500Y-5508258D01*
%TD*%
M02*
