%TF.GenerationSoftware,KiCad,Pcbnew,(6.0.7)*%
%TF.CreationDate,2022-12-07T22:38:20+09:00*%
%TF.ProjectId,multi_channel_temperature,6d756c74-695f-4636-9861-6e6e656c5f74,rev?*%
%TF.SameCoordinates,Original*%
%TF.FileFunction,Soldermask,Top*%
%TF.FilePolarity,Negative*%
%FSLAX46Y46*%
G04 Gerber Fmt 4.6, Leading zero omitted, Abs format (unit mm)*
G04 Created by KiCad (PCBNEW (6.0.7)) date 2022-12-07 22:38:20*
%MOMM*%
%LPD*%
G01*
G04 APERTURE LIST*
G04 Aperture macros list*
%AMRoundRect*
0 Rectangle with rounded corners*
0 $1 Rounding radius*
0 $2 $3 $4 $5 $6 $7 $8 $9 X,Y pos of 4 corners*
0 Add a 4 corners polygon primitive as box body*
4,1,4,$2,$3,$4,$5,$6,$7,$8,$9,$2,$3,0*
0 Add four circle primitives for the rounded corners*
1,1,$1+$1,$2,$3*
1,1,$1+$1,$4,$5*
1,1,$1+$1,$6,$7*
1,1,$1+$1,$8,$9*
0 Add four rect primitives between the rounded corners*
20,1,$1+$1,$2,$3,$4,$5,0*
20,1,$1+$1,$4,$5,$6,$7,0*
20,1,$1+$1,$6,$7,$8,$9,0*
20,1,$1+$1,$8,$9,$2,$3,0*%
G04 Aperture macros list end*
%ADD10RoundRect,0.200000X-0.200000X-0.275000X0.200000X-0.275000X0.200000X0.275000X-0.200000X0.275000X0*%
%ADD11RoundRect,0.225000X-0.225000X-0.250000X0.225000X-0.250000X0.225000X0.250000X-0.225000X0.250000X0*%
%ADD12RoundRect,0.200000X-0.275000X0.200000X-0.275000X-0.200000X0.275000X-0.200000X0.275000X0.200000X0*%
%ADD13RoundRect,0.200000X0.200000X0.275000X-0.200000X0.275000X-0.200000X-0.275000X0.200000X-0.275000X0*%
%ADD14RoundRect,0.100000X-0.712500X-0.100000X0.712500X-0.100000X0.712500X0.100000X-0.712500X0.100000X0*%
%ADD15C,3.000000*%
%ADD16R,3.000000X3.000000*%
%ADD17R,2.000000X2.000000*%
%ADD18RoundRect,0.225000X0.225000X0.250000X-0.225000X0.250000X-0.225000X-0.250000X0.225000X-0.250000X0*%
%ADD19RoundRect,0.250000X-0.250000X-0.475000X0.250000X-0.475000X0.250000X0.475000X-0.250000X0.475000X0*%
%ADD20C,1.600000*%
%ADD21O,1.600000X1.600000*%
%ADD22RoundRect,0.225000X-0.250000X0.225000X-0.250000X-0.225000X0.250000X-0.225000X0.250000X0.225000X0*%
%ADD23RoundRect,0.225000X0.250000X-0.225000X0.250000X0.225000X-0.250000X0.225000X-0.250000X-0.225000X0*%
%ADD24RoundRect,0.125000X-0.125000X0.625000X-0.125000X-0.625000X0.125000X-0.625000X0.125000X0.625000X0*%
%ADD25RoundRect,0.125000X-0.625000X0.125000X-0.625000X-0.125000X0.625000X-0.125000X0.625000X0.125000X0*%
%ADD26R,1.500000X2.000000*%
%ADD27R,3.800000X2.000000*%
%ADD28R,1.700000X1.700000*%
%ADD29O,1.700000X1.700000*%
%ADD30RoundRect,0.100000X-0.100000X0.712500X-0.100000X-0.712500X0.100000X-0.712500X0.100000X0.712500X0*%
%ADD31RoundRect,0.250000X0.250000X0.475000X-0.250000X0.475000X-0.250000X-0.475000X0.250000X-0.475000X0*%
%ADD32R,1.200000X0.900000*%
%ADD33RoundRect,0.200000X0.275000X-0.200000X0.275000X0.200000X-0.275000X0.200000X-0.275000X-0.200000X0*%
%ADD34RoundRect,0.150000X0.512500X0.150000X-0.512500X0.150000X-0.512500X-0.150000X0.512500X-0.150000X0*%
%ADD35RoundRect,0.150000X-0.150000X0.825000X-0.150000X-0.825000X0.150000X-0.825000X0.150000X0.825000X0*%
G04 APERTURE END LIST*
D10*
%TO.C,R31*%
X-47320000Y26035000D03*
X-45670000Y26035000D03*
%TD*%
D11*
%TO.C,C13*%
X-47130000Y2540000D03*
X-45580000Y2540000D03*
%TD*%
D10*
%TO.C,R5*%
X-50990000Y14605000D03*
X-49340000Y14605000D03*
%TD*%
D12*
%TO.C,R39*%
X-28575000Y29400000D03*
X-28575000Y27750000D03*
%TD*%
D13*
%TO.C,R30*%
X-41720000Y-5715000D03*
X-43370000Y-5715000D03*
%TD*%
D14*
%TO.C,IC1*%
X-44657500Y14310000D03*
X-44657500Y13660000D03*
X-44657500Y13010000D03*
X-44657500Y12360000D03*
X-40432500Y12360000D03*
X-40432500Y13010000D03*
X-40432500Y13660000D03*
X-40432500Y14310000D03*
%TD*%
D12*
%TO.C,R44*%
X-28575000Y33210000D03*
X-28575000Y31560000D03*
%TD*%
D10*
%TO.C,R27*%
X-51130000Y27940000D03*
X-49480000Y27940000D03*
%TD*%
D15*
%TO.C,CN3*%
X-64770000Y7620000D03*
X-64770000Y12700000D03*
D16*
X-64770000Y17780000D03*
%TD*%
D13*
%TO.C,R32*%
X-41860000Y26035000D03*
X-43510000Y26035000D03*
%TD*%
D10*
%TO.C,R17*%
X-47180000Y635000D03*
X-45530000Y635000D03*
%TD*%
D17*
%TO.C,TP2*%
X-36576000Y39116000D03*
%TD*%
D10*
%TO.C,R22*%
X-51130000Y30480000D03*
X-49480000Y30480000D03*
%TD*%
D18*
%TO.C,C4*%
X-36055000Y47625000D03*
X-37605000Y47625000D03*
%TD*%
D12*
%TO.C,R47*%
X-26670000Y4635000D03*
X-26670000Y2985000D03*
%TD*%
D10*
%TO.C,R7*%
X-43370000Y16510000D03*
X-41720000Y16510000D03*
%TD*%
D14*
%TO.C,IC4*%
X-44797500Y30185000D03*
X-44797500Y29535000D03*
X-44797500Y28885000D03*
X-44797500Y28235000D03*
X-40572500Y28235000D03*
X-40572500Y28885000D03*
X-40572500Y29535000D03*
X-40572500Y30185000D03*
%TD*%
D11*
%TO.C,C17*%
X-54610000Y-3810000D03*
X-53060000Y-3810000D03*
%TD*%
D17*
%TO.C,TP1*%
X-36576000Y6604000D03*
%TD*%
D13*
%TO.C,R20*%
X-36005000Y29845000D03*
X-37655000Y29845000D03*
%TD*%
D19*
%TO.C,C27*%
X-15870000Y3810000D03*
X-13970000Y3810000D03*
%TD*%
D10*
%TO.C,R18*%
X-47320000Y32385000D03*
X-45670000Y32385000D03*
%TD*%
D12*
%TO.C,R37*%
X-24130000Y35750000D03*
X-24130000Y34100000D03*
%TD*%
D13*
%TO.C,R16*%
X-41720000Y41910000D03*
X-43370000Y41910000D03*
%TD*%
D10*
%TO.C,R15*%
X-47180000Y41910000D03*
X-45530000Y41910000D03*
%TD*%
D20*
%TO.C,R43*%
X-57785000Y26035000D03*
D21*
X-57785000Y15875000D03*
%TD*%
D10*
%TO.C,R24*%
X-43320000Y32385000D03*
X-41670000Y32385000D03*
%TD*%
D17*
%TO.C,TP4*%
X-36576000Y23368000D03*
%TD*%
D11*
%TO.C,C23*%
X-51080000Y26035000D03*
X-49530000Y26035000D03*
%TD*%
%TO.C,C7*%
X-54610000Y43815000D03*
X-53060000Y43815000D03*
%TD*%
D14*
%TO.C,IC3*%
X-44657500Y-1565000D03*
X-44657500Y-2215000D03*
X-44657500Y-2865000D03*
X-44657500Y-3515000D03*
X-40432500Y-3515000D03*
X-40432500Y-2865000D03*
X-40432500Y-2215000D03*
X-40432500Y-1565000D03*
%TD*%
D22*
%TO.C,C31*%
X-28575000Y36970000D03*
X-28575000Y35420000D03*
%TD*%
D19*
%TO.C,C32*%
X-17206000Y16510000D03*
X-15306000Y16510000D03*
%TD*%
D11*
%TO.C,C10*%
X-37605000Y10160000D03*
X-36055000Y10160000D03*
%TD*%
D10*
%TO.C,R26*%
X-37655000Y-3810000D03*
X-36005000Y-3810000D03*
%TD*%
%TO.C,R29*%
X-47180000Y-5715000D03*
X-45530000Y-5715000D03*
%TD*%
%TO.C,R12*%
X-37655000Y43815000D03*
X-36005000Y43815000D03*
%TD*%
D12*
%TO.C,R34*%
X-24130000Y39560000D03*
X-24130000Y37910000D03*
%TD*%
D10*
%TO.C,R11*%
X-50990000Y43815000D03*
X-49340000Y43815000D03*
%TD*%
%TO.C,R10*%
X-37655000Y12065000D03*
X-36005000Y12065000D03*
%TD*%
D15*
%TO.C,CN4*%
X-64770000Y-8255000D03*
X-64770000Y-3175000D03*
D16*
X-64770000Y1905000D03*
%TD*%
D11*
%TO.C,C12*%
X-37605000Y41910000D03*
X-36055000Y41910000D03*
%TD*%
D23*
%TO.C,C37*%
X-22225000Y-5220000D03*
X-22225000Y-3670000D03*
%TD*%
D11*
%TO.C,C28*%
X-23635000Y21590000D03*
X-22085000Y21590000D03*
%TD*%
%TO.C,C9*%
X-50940000Y10160000D03*
X-49390000Y10160000D03*
%TD*%
D13*
%TO.C,R3*%
X-36005000Y13970000D03*
X-37655000Y13970000D03*
%TD*%
D10*
%TO.C,R13*%
X-47180000Y10160000D03*
X-45530000Y10160000D03*
%TD*%
D24*
%TO.C,IC6*%
X-22600000Y16240000D03*
X-23400000Y16240000D03*
X-24200000Y16240000D03*
X-25000000Y16240000D03*
X-25800000Y16240000D03*
X-26600000Y16240000D03*
X-27400000Y16240000D03*
X-28200000Y16240000D03*
D25*
X-29575000Y14865000D03*
X-29575000Y14065000D03*
X-29575000Y13265000D03*
X-29575000Y12465000D03*
X-29575000Y11665000D03*
X-29575000Y10865000D03*
X-29575000Y10065000D03*
X-29575000Y9265000D03*
D24*
X-28200000Y7890000D03*
X-27400000Y7890000D03*
X-26600000Y7890000D03*
X-25800000Y7890000D03*
X-25000000Y7890000D03*
X-24200000Y7890000D03*
X-23400000Y7890000D03*
X-22600000Y7890000D03*
D25*
X-21225000Y9265000D03*
X-21225000Y10065000D03*
X-21225000Y10865000D03*
X-21225000Y11665000D03*
X-21225000Y12465000D03*
X-21225000Y13265000D03*
X-21225000Y14065000D03*
X-21225000Y14865000D03*
%TD*%
D26*
%TO.C,IC5*%
X-13575000Y-25000D03*
D27*
X-15875000Y-6325000D03*
D26*
X-15875000Y-25000D03*
X-18175000Y-25000D03*
%TD*%
D17*
%TO.C,TP5*%
X-30988000Y20828000D03*
%TD*%
D11*
%TO.C,C6*%
X-54610000Y14605000D03*
X-53060000Y14605000D03*
%TD*%
%TO.C,C20*%
X-54750000Y30480000D03*
X-53200000Y30480000D03*
%TD*%
%TO.C,C1*%
X-47130000Y18415000D03*
X-45580000Y18415000D03*
%TD*%
D28*
%TO.C,CN5*%
X-15875000Y29220000D03*
D29*
X-15875000Y31760000D03*
X-15875000Y34300000D03*
X-15875000Y36840000D03*
%TD*%
D10*
%TO.C,R9*%
X-50990000Y12065000D03*
X-49340000Y12065000D03*
%TD*%
D12*
%TO.C,R48*%
X-28575000Y4635000D03*
X-28575000Y2985000D03*
%TD*%
D11*
%TO.C,C18*%
X-54610000Y-1270000D03*
X-53060000Y-1270000D03*
%TD*%
D10*
%TO.C,R6*%
X-50990000Y46355000D03*
X-49340000Y46355000D03*
%TD*%
D30*
%TO.C,IC7*%
X-24425000Y31322500D03*
X-25075000Y31322500D03*
X-25725000Y31322500D03*
X-26375000Y31322500D03*
X-26375000Y27097500D03*
X-25725000Y27097500D03*
X-25075000Y27097500D03*
X-24425000Y27097500D03*
%TD*%
D10*
%TO.C,R23*%
X-43370000Y635000D03*
X-41720000Y635000D03*
%TD*%
D22*
%TO.C,C25*%
X-20320000Y33160000D03*
X-20320000Y31610000D03*
%TD*%
%TO.C,C29*%
X-20320000Y29350000D03*
X-20320000Y27800000D03*
%TD*%
D31*
%TO.C,C26*%
X-14925000Y8890000D03*
X-16825000Y8890000D03*
%TD*%
D13*
%TO.C,R19*%
X-36005000Y-1905000D03*
X-37655000Y-1905000D03*
%TD*%
%TO.C,R41*%
X-25845000Y23495000D03*
X-27495000Y23495000D03*
%TD*%
D12*
%TO.C,R40*%
X-26670000Y35750000D03*
X-26670000Y34100000D03*
%TD*%
D32*
%TO.C,D1*%
X-15875000Y21210000D03*
X-15875000Y24510000D03*
%TD*%
D10*
%TO.C,R2*%
X-47180000Y48260000D03*
X-45530000Y48260000D03*
%TD*%
D15*
%TO.C,CN2*%
X-64770000Y23495000D03*
X-64770000Y28575000D03*
D16*
X-64770000Y33655000D03*
%TD*%
D11*
%TO.C,C22*%
X-37605000Y-5715000D03*
X-36055000Y-5715000D03*
%TD*%
D33*
%TO.C,R42*%
X-22035000Y37910000D03*
X-22035000Y39560000D03*
%TD*%
D15*
%TO.C,CN1*%
X-64770000Y39370000D03*
X-64770000Y44450000D03*
D16*
X-64770000Y49530000D03*
%TD*%
D18*
%TO.C,C3*%
X-36055000Y15875000D03*
X-37605000Y15875000D03*
%TD*%
D11*
%TO.C,C8*%
X-54610000Y46355000D03*
X-53060000Y46355000D03*
%TD*%
D18*
%TO.C,C16*%
X-36055000Y31750000D03*
X-37605000Y31750000D03*
%TD*%
D17*
%TO.C,TP3*%
X-36576000Y-8636000D03*
%TD*%
D34*
%TO.C,IC8*%
X-15052500Y12385000D03*
X-15052500Y13335000D03*
X-15052500Y14285000D03*
X-17327500Y14285000D03*
X-17327500Y12385000D03*
%TD*%
D12*
%TO.C,R33*%
X-22225000Y33210000D03*
X-22225000Y31560000D03*
%TD*%
D10*
%TO.C,R28*%
X-37655000Y27940000D03*
X-36005000Y27940000D03*
%TD*%
%TO.C,R25*%
X-50990000Y-3810000D03*
X-49340000Y-3810000D03*
%TD*%
D14*
%TO.C,IC2*%
X-44657500Y46060000D03*
X-44657500Y45410000D03*
X-44657500Y44760000D03*
X-44657500Y44110000D03*
X-40432500Y44110000D03*
X-40432500Y44760000D03*
X-40432500Y45410000D03*
X-40432500Y46060000D03*
%TD*%
D13*
%TO.C,R4*%
X-36005000Y45720000D03*
X-37655000Y45720000D03*
%TD*%
D10*
%TO.C,R1*%
X-47180000Y16510000D03*
X-45530000Y16510000D03*
%TD*%
%TO.C,R21*%
X-50990000Y-1270000D03*
X-49340000Y-1270000D03*
%TD*%
D18*
%TO.C,C15*%
X-36055000Y0D03*
X-37605000Y0D03*
%TD*%
D11*
%TO.C,C24*%
X-37605000Y26035000D03*
X-36055000Y26035000D03*
%TD*%
%TO.C,C11*%
X-50940000Y41910000D03*
X-49390000Y41910000D03*
%TD*%
D10*
%TO.C,R8*%
X-43370000Y48260000D03*
X-41720000Y48260000D03*
%TD*%
D12*
%TO.C,R38*%
X-22225000Y29400000D03*
X-22225000Y27750000D03*
%TD*%
D11*
%TO.C,C5*%
X-54610000Y12065000D03*
X-53060000Y12065000D03*
%TD*%
D13*
%TO.C,R14*%
X-41720000Y10160000D03*
X-43370000Y10160000D03*
%TD*%
D35*
%TO.C,IC9*%
X-24765000Y-65000D03*
X-26035000Y-65000D03*
X-27305000Y-65000D03*
X-28575000Y-65000D03*
X-28575000Y-5015000D03*
X-27305000Y-5015000D03*
X-26035000Y-5015000D03*
X-24765000Y-5015000D03*
%TD*%
D12*
%TO.C,R35*%
X-26670000Y39560000D03*
X-26670000Y37910000D03*
%TD*%
D17*
%TO.C,TP6*%
X-30988000Y24892000D03*
%TD*%
D11*
%TO.C,C21*%
X-50940000Y-5715000D03*
X-49390000Y-5715000D03*
%TD*%
%TO.C,C14*%
X-47270000Y34290000D03*
X-45720000Y34290000D03*
%TD*%
%TO.C,C2*%
X-47130000Y50165000D03*
X-45580000Y50165000D03*
%TD*%
%TO.C,C19*%
X-54750000Y27940000D03*
X-53200000Y27940000D03*
%TD*%
D19*
%TO.C,C40*%
X-17206000Y18796000D03*
X-15306000Y18796000D03*
%TD*%
D22*
%TO.C,C30*%
X-30480000Y29350000D03*
X-30480000Y27800000D03*
%TD*%
D13*
%TO.C,R36*%
X-22035000Y23495000D03*
X-23685000Y23495000D03*
%TD*%
D18*
%TO.C,C33*%
X-24625000Y18415000D03*
X-26175000Y18415000D03*
%TD*%
D16*
%TO.C,CN6*%
X-14605000Y-15875000D03*
D15*
X-19685000Y-15875000D03*
X-24765000Y-15875000D03*
X-29845000Y-15875000D03*
X-34925000Y-15875000D03*
%TD*%
D12*
%TO.C,R45*%
X-24765000Y4635000D03*
X-24765000Y2985000D03*
%TD*%
M02*
